<!-- Esta é uma imagem SVG otimizada como placeholder -->
<svg width="600" height="400" viewBox="0 0 600 400" fill="none" xmlns="http://www.w3.org/2000/svg">
  <!-- Background -->
  <rect width="600" height="400" fill="#1E3A8A"/>
  
  <!-- Spotify-like interface mockup -->
  <rect x="50" y="50" width="500" height="300" rx="12" fill="#111827"/>
  
  <!-- Header -->
  <rect x="70" y="70" width="460" height="40" fill="#1f2937"/>
  <circle cx="90" cy="90" r="8" fill="#34D399"/>
  <rect x="110" y="82" width="150" height="16" rx="8" fill="#4B5563"/>
  
  <!-- Playlist items -->
  <rect x="70" y="130" width="460" height="30" fill="#374151"/>
  <rect x="85" y="140" width="20" height="10" rx="2" fill="#34D399"/>
  <rect x="115" y="138" width="200" height="6" rx="3" fill="#D1D5DB"/>
  <rect x="115" y="148" width="120" height="4" rx="2" fill="#9CA3AF"/>
  
  <rect x="70" y="170" width="460" height="30" fill="#374151"/>
  <rect x="85" y="180" width="20" height="10" rx="2" fill="#34D399"/>
  <rect x="115" y="178" width="180" height="6" rx="3" fill="#D1D5DB"/>
  <rect x="115" y="188" width="140" height="4" rx="2" fill="#9CA3AF"/>
  
  <rect x="70" y="210" width="460" height="30" fill="#374151"/>
  <rect x="85" y="220" width="20" height="10" rx="2" fill="#34D399"/>
  <rect x="115" y="218" width="220" height="6" rx="3" fill="#D1D5DB"/>
  <rect x="115" y="228" width="100" height="4" rx="2" fill="#9CA3AF"/>
  
  <!-- Play button -->
  <circle cx="300" cy="300" r="25" fill="#34D399"/>
  <path d="M290 285 L315 300 L290 315 V285Z" fill="#111827"/>
  
  <!-- Music notes decoration -->
  <circle cx="150" cy="320" r="3" fill="#34D399"/>
  <rect x="148" y="300" width="4" height="20" fill="#34D399"/>
  <path d="M152 305 Q160 300 165 305" stroke="#34D399" stroke-width="2" fill="none"/>
  
  <circle cx="450" cy="280" r="3" fill="#34D399"/>
  <rect x="448" y="260" width="4" height="20" fill="#34D399"/>
  <path d="M452 265 Q460 260 465 265" stroke="#34D399" stroke-width="2" fill="none"/>
  
  <!-- Title -->
  <text x="300" y="35" font-family="Arial, sans-serif" font-size="18" font-weight="bold" fill="#D1D5DB" text-anchor="middle">Interface do Spotify - Criação de Playlist</text>
</svg>